<svg version="1" xmlns="http://www.w3.org/2000/svg" width="682.667" height="682.667" viewBox="0 0 512.000000 512.000000"><path d="M6.3 133.9C-.3 138.1 0 133.8 0 220c0 85.6-.2 82.6 5.8 86.7 2.5 1.7 6.2 1.8 48.2 2.1 25 .2 47 0 48.8-.3 1.8-.3 4.8-2.1 6.7-4.1 3.1-3 3.5-4.1 3.5-8.4 0-4.3-.5-5.4-3.4-8.3-1.8-1.9-4.8-3.7-6.6-4.1-1.8-.3-20.1-.6-40.6-.6H25V140l-3.3-3.6c-4.2-4.6-10.4-5.6-15.4-2.5zM391.3 133.6c-1.8.9-4 2.8-5 4.3-1.7 2.4-1.8 7.4-2.1 80.4-.2 52.5.1 79 .8 81.7.7 2.6 2.3 4.9 4.7 6.7l3.6 2.8 33.1.3c34.8.4 43-.2 52.7-3.9 14.2-5.4 26.2-17.9 30.4-31.5 6.3-20.6-1.1-42.8-18.5-55.5-3.3-2.4-6-4.5-6-4.6 0-.1 1.6-3.2 3.6-6.8 4.6-8.4 6.4-15.1 6.4-24.5 0-21.9-13.1-40.2-34.8-48.3-5.3-1.9-8.1-2.1-35.7-2.4-26.1-.3-30.4-.1-33.2 1.3zm63.4 26.3c19.6 8.8 20.1 35 .8 45.4-3.7 2-5.7 2.2-25.2 2.5l-21.3.3v-51.3l20.3.4c18.6.3 20.6.5 25.4 2.7zm15.3 75.7c15.9 7.3 20.6 27 9.4 39.4-7 7.8-8.2 8-41.2 8H409v-50.2l28.3.4c26.1.3 28.5.5 32.7 2.4zM159.2 192c-27.3 7.2-47.2 32.7-47.2 60.5 0 10.9 1.7 18.1 6.6 28.3 7.8 16.1 21.5 27.8 38.9 33.2 8.3 2.5 23 3 31.5 1.1 17.8-4.2 35-17.8 42.8-34.1 4.8-10.2 6.4-17.3 6.3-28.9-.1-16.9-6.1-31-18.6-43.6-15.6-15.7-38.9-22.1-60.3-16.5zm28.1 24.7c8.7 2.7 18.1 11.3 22.7 20.7 13.1 27.1-10.9 59-40.6 53.9-31.2-5.4-43.7-42.9-21.6-65 10.8-10.8 24.9-14.2 39.5-9.6zM297.2 191.5c-17.1 3.7-34.1 17.3-42.1 33.5-9 18.5-9.2 37.6-.6 55.5 10.9 22.5 32.4 35.8 57.5 35.7 11 0 21.6-3 31.3-8.8 3.2-1.8 6.1-3.4 6.4-3.4.3 0 .4 5.1.2 11.3-.4 10.3-.7 11.8-3.6 17.8-3.9 8-11.1 15-19.1 18.7-5 2.4-6.9 2.7-15.7 2.7-8.7 0-10.7-.3-15.6-2.6-7-3.3-13.2-8.8-17.5-15.5-4.4-6.9-5.8-8.1-10.2-9.3-3-.9-4.4-.7-7.8 1-7.6 3.6-9.1 11-4.1 19.7 9.7 16.9 25 27.7 44.1 31.1 31.3 5.6 62-13.5 72.2-44.9 1.6-4.8 1.8-10.5 2.2-45.5.4-42.7 0-47-4.8-59.7-2.9-7.9-11.3-19.3-18.3-24.9-7-5.6-16.7-10.4-25-12.4-7.7-1.8-21.1-1.8-29.5 0zm30.7 26c21.1 9.5 28.7 37.4 15.3 56.6-21.1 30.2-68.2 17.1-70-19.4-.6-12.2 2.8-21.4 10.9-29.6 11.7-11.6 28.3-14.5 43.8-7.6z"/></svg>