<?xml version="1.0" standalone="no"?>
<!DOCTYPE svg PUBLIC "-//W3C//DTD SVG 20010904//EN"
 "http://www.w3.org/TR/2001/REC-SVG-20010904/DTD/svg10.dtd">
<svg version="1.0" xmlns="http://www.w3.org/2000/svg"
 width="512.000000pt" height="512.000000pt" viewBox="0 0 512.000000 512.000000"
 preserveAspectRatio="xMidYMid meet">
<metadata>
Created by potrace 1.11, written by Peter Selinger 2001-2013
</metadata>
<g transform="translate(0.000000,512.000000) scale(0.100000,-0.100000)"
fill="#000000" stroke="none">
<path d="M726 3435 l-26 -24 0 -591 0 -591 26 -24 27 -25 358 0 357 0 27 32
c22 26 26 39 21 67 -3 19 -15 44 -26 55 -20 20 -33 21 -315 24 l-294 3 -3 525
-3 526 -28 24 c-37 32 -86 32 -121 -1z"/>
<path d="M3527 3436 l-27 -25 0 -594 0 -594 26 -24 c26 -24 26 -24 290 -27
216 -2 276 0 327 13 108 28 194 98 247 202 22 42 25 61 25 148 0 90 -3 105
-29 155 -31 61 -96 134 -138 156 l-28 14 24 38 c41 62 59 133 54 214 -7 135
-83 250 -207 311 l-65 32 -236 3 -236 3 -27 -25z m478 -175 c137 -62 152 -236
27 -322 -33 -23 -45 -24 -199 -27 l-163 -3 0 185 0 186 148 0 c121 0 154 -4
187 -19z m120 -553 c69 -37 105 -97 105 -174 0 -52 -16 -88 -57 -126 -46 -44
-71 -48 -294 -48 l-209 0 0 178 c0 98 3 182 8 186 4 4 99 6 212 4 166 -3 211
-7 235 -20z"/>
<path d="M1858 3024 c-220 -53 -377 -288 -340 -510 44 -267 298 -440 556 -380
167 40 298 166 341 331 87 336 -218 642 -557 559z m227 -188 c29 -13 69 -44
92 -70 129 -147 82 -362 -96 -444 -45 -21 -64 -24 -125 -20 -86 6 -136 29
-193 90 -75 82 -94 218 -45 313 69 134 235 193 367 131z"/>
<path d="M2853 3025 c-207 -56 -343 -230 -345 -441 -2 -234 163 -423 398 -457
91 -13 170 0 264 46 36 18 69 34 74 36 5 2 7 -31 3 -78 -12 -178 -121 -291
-281 -291 -105 0 -184 44 -243 135 -41 63 -79 81 -127 61 -59 -25 -70 -69 -35
-139 94 -183 319 -277 523 -220 149 42 261 148 319 301 20 54 21 74 21 372 0
300 -1 318 -22 374 -12 33 -33 78 -46 100 -31 53 -121 138 -174 165 -97 49
-226 63 -329 36z m210 -175 c108 -40 181 -146 181 -260 -1 -163 -122 -284
-285 -283 -81 0 -138 25 -198 85 -209 211 22 563 302 458z"/>
</g>
</svg>
